<svg width="1200" height="1200" viewBox="0 0 1200 1200" fill="none" xmlns="http://www.w3.org/2000/svg" role="img" aria-labelledby="title desc">
  <title id="title">ABC notation symbol</title>
  <desc id="desc">An ABC notation symbol with text based music notation and staff accents.</desc>
  <defs>
    <linearGradient id="panel" x1="214" y1="194" x2="987" y2="1010" gradientUnits="userSpaceOnUse">
      <stop offset="0" stop-color="#BC6C48"/>
      <stop offset="1" stop-color="#85472B"/>
    </linearGradient>
    <linearGradient id="sheet" x1="324" y1="322" x2="864" y2="894" gradientUnits="userSpaceOnUse">
      <stop offset="0" stop-color="#FFFCFA"/>
      <stop offset="1" stop-color="#F1E2D8"/>
    </linearGradient>
    <linearGradient id="accent" x1="434" y1="540" x2="786" y2="794" gradientUnits="userSpaceOnUse">
      <stop offset="0" stop-color="#E2AA8F"/>
      <stop offset="1" stop-color="#C87A55"/>
    </linearGradient>
    <filter id="shadow" x="164" y="156" width="872" height="900" filterUnits="userSpaceOnUse" color-interpolation-filters="sRGB">
      <feFlood flood-opacity="0" result="BackgroundImageFix"/>
      <feColorMatrix in="SourceAlpha" type="matrix" values="0 0 0 0 0 0 0 0 0 0 0 0 0 0 0 0 0 0 127 0" result="hardAlpha"/>
      <feOffset dy="20"/>
      <feGaussianBlur stdDeviation="26"/>
      <feComposite in2="hardAlpha" operator="out"/>
      <feColorMatrix type="matrix" values="0 0 0 0 0.521569 0 0 0 0 0.278431 0 0 0 0 0.168627 0 0 0 0.2 0"/>
      <feBlend mode="normal" in2="BackgroundImageFix" result="effect1_dropShadow_1_1"/>
      <feBlend mode="normal" in="SourceGraphic" in2="effect1_dropShadow_1_1" result="shape"/>
    </filter>
  </defs>

  <g filter="url(#shadow)">
    <rect x="216" y="208" width="768" height="784" rx="154" fill="url(#panel)"/>
    <path d="M332 304C332 281.909 349.909 264 372 264H722.118C732.726 264 742.9 268.214 750.402 275.716L863.284 388.598C870.786 396.1 875 406.274 875 416.882V896C875 918.091 857.091 936 835 936H372C349.909 936 332 918.091 332 896V304Z" fill="url(#sheet)"/>
    <path d="M744 264V374C744 396.091 761.909 414 784 414H875" fill="#EBCABC"/>

    <rect x="404" y="384" width="180" height="40" rx="20" fill="#9B5334"/>
    <rect x="404" y="468" width="246" height="28" rx="14" fill="#D9A38D"/>
    <rect x="404" y="522" width="196" height="28" rx="14" fill="#E9C6B6"/>

    <g stroke="#C88A6D" stroke-width="8" stroke-linecap="round" opacity="0.8">
      <path d="M404 642H812"/>
      <path d="M404 678H812"/>
      <path d="M404 714H812"/>
      <path d="M404 750H812"/>
      <path d="M404 786H812"/>
    </g>

    <g fill="#8F482D">
      <rect x="432" y="600" width="70" height="100" rx="20"/>
      <rect x="520" y="600" width="70" height="100" rx="20"/>
      <rect x="608" y="600" width="70" height="100" rx="20"/>
    </g>

    <g fill="url(#accent)">
      <rect x="432" y="804" width="348" height="32" rx="16"/>
      <rect x="432" y="846" width="252" height="24" rx="12"/>
    </g>

    <g fill="#FFF5EF">
      <rect x="448" y="622" width="38" height="18" rx="9"/>
      <rect x="536" y="622" width="38" height="18" rx="9"/>
      <rect x="624" y="622" width="38" height="18" rx="9"/>
      <rect x="448" y="652" width="38" height="18" rx="9"/>
      <rect x="536" y="652" width="38" height="18" rx="9"/>
      <rect x="624" y="652" width="38" height="18" rx="9"/>
    </g>
  </g>
</svg>
