<svg width="1200" height="1200" viewBox="0 0 1200 1200" fill="none" xmlns="http://www.w3.org/2000/svg" role="img" aria-labelledby="title desc">
  <title id="title">MIDI symbol</title>
  <desc id="desc">A MIDI symbol inspired by a piano roll editor with timed note blocks.</desc>
  <defs>
    <linearGradient id="panel" x1="214" y1="194" x2="987" y2="1010" gradientUnits="userSpaceOnUse">
      <stop offset="0" stop-color="#7A62D4"/>
      <stop offset="1" stop-color="#4F3BA0"/>
    </linearGradient>
    <linearGradient id="sheet" x1="324" y1="322" x2="864" y2="894" gradientUnits="userSpaceOnUse">
      <stop offset="0" stop-color="#FCFBFF"/>
      <stop offset="1" stop-color="#E5DFF8"/>
    </linearGradient>
    <linearGradient id="note" x1="446" y1="510" x2="780" y2="800" gradientUnits="userSpaceOnUse">
      <stop offset="0" stop-color="#BAAEFF"/>
      <stop offset="1" stop-color="#8B79E7"/>
    </linearGradient>
    <filter id="shadow" x="164" y="156" width="872" height="900" filterUnits="userSpaceOnUse" color-interpolation-filters="sRGB">
      <feFlood flood-opacity="0" result="BackgroundImageFix"/>
      <feColorMatrix in="SourceAlpha" type="matrix" values="0 0 0 0 0 0 0 0 0 0 0 0 0 0 0 0 0 0 127 0" result="hardAlpha"/>
      <feOffset dy="20"/>
      <feGaussianBlur stdDeviation="26"/>
      <feComposite in2="hardAlpha" operator="out"/>
      <feColorMatrix type="matrix" values="0 0 0 0 0.309804 0 0 0 0 0.231373 0 0 0 0 0.627451 0 0 0 0.2 0"/>
      <feBlend mode="normal" in2="BackgroundImageFix" result="effect1_dropShadow_1_1"/>
      <feBlend mode="normal" in="SourceGraphic" in2="effect1_dropShadow_1_1" result="shape"/>
    </filter>
  </defs>

  <g filter="url(#shadow)">
    <rect x="216" y="208" width="768" height="784" rx="154" fill="url(#panel)"/>
    <rect x="314" y="296" width="572" height="612" rx="72" fill="url(#sheet)"/>

    <rect x="314" y="296" width="572" height="136" rx="72" fill="#5A46B1"/>
    <rect x="382" y="348" width="164" height="30" rx="15" fill="#F0EDFF" fill-opacity="0.96"/>
    <circle cx="794" cy="364" r="20" fill="#F0EDFF"/>
    <circle cx="730" cy="364" r="20" fill="#D3CCFF"/>

    <rect x="374" y="492" width="108" height="328" rx="28" fill="#D4CDF4"/>

    <g stroke="#B3A7E8" stroke-width="8" stroke-linecap="round" opacity="0.85">
      <path d="M498 506H824"/>
      <path d="M498 570H824"/>
      <path d="M498 634H824"/>
      <path d="M498 698H824"/>
      <path d="M498 762H824"/>
      <path d="M556 474V838"/>
      <path d="M628 474V838"/>
      <path d="M700 474V838"/>
      <path d="M772 474V838"/>
    </g>

    <g fill="#7563C8">
      <rect x="386" y="516" width="84" height="24" rx="12"/>
      <rect x="386" y="580" width="84" height="24" rx="12"/>
      <rect x="386" y="644" width="84" height="24" rx="12"/>
      <rect x="386" y="708" width="84" height="24" rx="12"/>
      <rect x="386" y="772" width="84" height="24" rx="12"/>
    </g>

    <g fill="url(#note)">
      <rect x="520" y="548" width="178" height="44" rx="16"/>
      <rect x="592" y="612" width="196" height="44" rx="16"/>
      <rect x="556" y="740" width="124" height="44" rx="16"/>
    </g>
  </g>
</svg>
