<svg width="1200" height="1200" viewBox="0 0 1200 1200" fill="none" xmlns="http://www.w3.org/2000/svg" role="img" aria-labelledby="title desc">
  <title id="title">VSQX symbol</title>
  <desc id="desc">A VSQX symbol inspired by vocal synthesis editing with note lanes and a pitch curve.</desc>
  <defs>
    <linearGradient id="panel" x1="214" y1="194" x2="987" y2="1010" gradientUnits="userSpaceOnUse">
      <stop offset="0" stop-color="#27B5A8"/>
      <stop offset="1" stop-color="#17736C"/>
    </linearGradient>
    <linearGradient id="sheet" x1="324" y1="322" x2="864" y2="894" gradientUnits="userSpaceOnUse">
      <stop offset="0" stop-color="#F8FFFE"/>
      <stop offset="1" stop-color="#D9F1EE"/>
    </linearGradient>
    <linearGradient id="note" x1="442" y1="530" x2="792" y2="786" gradientUnits="userSpaceOnUse">
      <stop offset="0" stop-color="#7FE6DC"/>
      <stop offset="1" stop-color="#42C8BA"/>
    </linearGradient>
    <filter id="shadow" x="164" y="156" width="872" height="900" filterUnits="userSpaceOnUse" color-interpolation-filters="sRGB">
      <feFlood flood-opacity="0" result="BackgroundImageFix"/>
      <feColorMatrix in="SourceAlpha" type="matrix" values="0 0 0 0 0 0 0 0 0 0 0 0 0 0 0 0 0 0 127 0" result="hardAlpha"/>
      <feOffset dy="20"/>
      <feGaussianBlur stdDeviation="26"/>
      <feComposite in2="hardAlpha" operator="out"/>
      <feColorMatrix type="matrix" values="0 0 0 0 0.0901961 0 0 0 0 0.45098 0 0 0 0 0.423529 0 0 0 0.2 0"/>
      <feBlend mode="normal" in2="BackgroundImageFix" result="effect1_dropShadow_1_1"/>
      <feBlend mode="normal" in="SourceGraphic" in2="effect1_dropShadow_1_1" result="shape"/>
    </filter>
  </defs>

  <g filter="url(#shadow)">
    <rect x="216" y="208" width="768" height="784" rx="154" fill="url(#panel)"/>
    <rect x="314" y="296" width="572" height="612" rx="72" fill="url(#sheet)"/>

    <rect x="314" y="296" width="572" height="136" rx="72" fill="#1C867E"/>
    <rect x="382" y="348" width="168" height="30" rx="15" fill="#EAFFFC" fill-opacity="0.96"/>
    <circle cx="794" cy="364" r="20" fill="#EAFFFC"/>
    <circle cx="730" cy="364" r="20" fill="#BFEDE7"/>

    <g fill="#CDEEEA">
      <rect x="376" y="500" width="448" height="68" rx="24"/>
      <rect x="376" y="590" width="448" height="68" rx="24"/>
      <rect x="376" y="680" width="448" height="68" rx="24"/>
      <rect x="376" y="770" width="448" height="68" rx="24"/>
    </g>

    <g stroke="#A7DDD6" stroke-width="8" stroke-linecap="round" opacity="0.85">
      <path d="M456 486V850"/>
      <path d="M552 486V850"/>
      <path d="M648 486V850"/>
      <path d="M744 486V850"/>
    </g>

    <g fill="url(#note)">
      <rect x="410" y="516" width="206" height="36" rx="14"/>
      <rect x="520" y="606" width="172" height="36" rx="14"/>
      <rect x="456" y="696" width="234" height="36" rx="14"/>
      <rect x="600" y="786" width="118" height="36" rx="14"/>
    </g>

    <path d="M408 448C452 460 500 472 548 468C596 464 628 434 676 432C724 430 760 452 810 494" stroke="#0E5D58" stroke-width="16" stroke-linecap="round"/>
    <g fill="#0E5D58">
      <circle cx="410" cy="448" r="10"/>
      <circle cx="548" cy="468" r="10"/>
      <circle cx="676" cy="432" r="10"/>
      <circle cx="810" cy="494" r="10"/>
    </g>
  </g>
</svg>
