<svg width="1200" height="1200" viewBox="0 0 1200 1200" fill="none" xmlns="http://www.w3.org/2000/svg" role="img" aria-labelledby="title desc">
  <title id="title">ECMAScript symbol</title>
  <desc id="desc">An ECMAScript symbol with code lines and curly brace cues.</desc>
  <defs>
    <linearGradient id="panel" x1="214" y1="194" x2="987" y2="1010" gradientUnits="userSpaceOnUse">
      <stop offset="0" stop-color="#D8C24A"/>
      <stop offset="1" stop-color="#9B8624"/>
    </linearGradient>
    <linearGradient id="sheet" x1="324" y1="322" x2="864" y2="894" gradientUnits="userSpaceOnUse">
      <stop offset="0" stop-color="#FFFEEE"/>
      <stop offset="1" stop-color="#F3EDC6"/>
    </linearGradient>
    <linearGradient id="accent" x1="436" y1="528" x2="790" y2="794" gradientUnits="userSpaceOnUse">
      <stop offset="0" stop-color="#F2E48C"/>
      <stop offset="1" stop-color="#D3BE4E"/>
    </linearGradient>
    <filter id="shadow" x="164" y="156" width="872" height="900" filterUnits="userSpaceOnUse" color-interpolation-filters="sRGB">
      <feFlood flood-opacity="0" result="BackgroundImageFix"/>
      <feColorMatrix in="SourceAlpha" type="matrix" values="0 0 0 0 0 0 0 0 0 0 0 0 0 0 0 0 0 0 127 0" result="hardAlpha"/>
      <feOffset dy="20"/>
      <feGaussianBlur stdDeviation="26"/>
      <feComposite in2="hardAlpha" operator="out"/>
      <feColorMatrix type="matrix" values="0 0 0 0 0.607843 0 0 0 0 0.52549 0 0 0 0 0.141176 0 0 0 0.2 0"/>
      <feBlend mode="normal" in2="BackgroundImageFix" result="effect1_dropShadow_1_1"/>
      <feBlend mode="normal" in="SourceGraphic" in2="effect1_dropShadow_1_1" result="shape"/>
    </filter>
  </defs>

  <g filter="url(#shadow)">
    <rect x="216" y="208" width="768" height="784" rx="154" fill="url(#panel)"/>
    <rect x="314" y="296" width="572" height="612" rx="72" fill="url(#sheet)"/>

    <rect x="314" y="296" width="572" height="136" rx="72" fill="#A89228"/>
    <rect x="382" y="348" width="220" height="30" rx="15" fill="#FFF9D9" fill-opacity="0.96"/>
    <circle cx="794" cy="364" r="20" fill="#FFF9D9"/>
    <circle cx="730" cy="364" r="20" fill="#E9DE9D"/>

    <g stroke="#8A7620" stroke-width="18" stroke-linecap="round" stroke-linejoin="round">
      <path d="M450 548C420 548 402 568 402 598V616C402 644 390 660 366 666C390 672 402 688 402 716V734C402 764 420 784 450 784"/>
      <path d="M748 548C778 548 796 568 796 598V616C796 644 808 660 832 666C808 672 796 688 796 716V734C796 764 778 784 748 784"/>
    </g>

    <g fill="url(#accent)">
      <rect x="490" y="548" width="162" height="28" rx="14"/>
      <rect x="490" y="604" width="228" height="28" rx="14"/>
      <rect x="490" y="660" width="184" height="28" rx="14"/>
      <rect x="490" y="716" width="246" height="28" rx="14"/>
    </g>

    <g fill="#8A7620">
      <circle cx="466" cy="562" r="10"/>
      <circle cx="466" cy="618" r="10"/>
      <circle cx="466" cy="674" r="10"/>
      <circle cx="466" cy="730" r="10"/>
    </g>
  </g>
</svg>
