<svg width="1200" height="1200" viewBox="0 0 1200 1200" fill="none" xmlns="http://www.w3.org/2000/svg" role="img" aria-labelledby="title desc">
  <title id="title">Clock symbol</title>
  <desc id="desc">A clock symbol with a round dial and hands.</desc>
  <defs>
    <linearGradient id="panel" x1="214" y1="194" x2="987" y2="1010" gradientUnits="userSpaceOnUse">
      <stop offset="0" stop-color="#6B8FB8"/>
      <stop offset="1" stop-color="#3D577E"/>
    </linearGradient>
    <linearGradient id="dial" x1="378" y1="394" x2="820" y2="840" gradientUnits="userSpaceOnUse">
      <stop offset="0" stop-color="#FCFDFF"/>
      <stop offset="1" stop-color="#DFE7F0"/>
    </linearGradient>
    <linearGradient id="ring" x1="372" y1="388" x2="828" y2="846" gradientUnits="userSpaceOnUse">
      <stop offset="0" stop-color="#AFC4DD"/>
      <stop offset="1" stop-color="#7593B7"/>
    </linearGradient>
    <filter id="shadow" x="164" y="156" width="872" height="900" filterUnits="userSpaceOnUse" color-interpolation-filters="sRGB">
      <feFlood flood-opacity="0" result="BackgroundImageFix"/>
      <feColorMatrix in="SourceAlpha" type="matrix" values="0 0 0 0 0 0 0 0 0 0 0 0 0 0 0 0 0 0 127 0" result="hardAlpha"/>
      <feOffset dy="20"/>
      <feGaussianBlur stdDeviation="26"/>
      <feComposite in2="hardAlpha" operator="out"/>
      <feColorMatrix type="matrix" values="0 0 0 0 0.239216 0 0 0 0 0.341176 0 0 0 0 0.494118 0 0 0 0.2 0"/>
      <feBlend mode="normal" in2="BackgroundImageFix" result="effect1_dropShadow_1_1"/>
      <feBlend mode="normal" in="SourceGraphic" in2="effect1_dropShadow_1_1" result="shape"/>
    </filter>
  </defs>

  <g filter="url(#shadow)">
    <rect x="216" y="208" width="768" height="784" rx="154" fill="url(#panel)"/>
    <rect x="314" y="296" width="572" height="612" rx="72" fill="#EDF3FA"/>

    <rect x="314" y="296" width="572" height="136" rx="72" fill="#49678F"/>
    <rect x="382" y="348" width="164" height="30" rx="15" fill="#F1F6FC" fill-opacity="0.96"/>
    <circle cx="794" cy="364" r="20" fill="#F1F6FC"/>
    <circle cx="730" cy="364" r="20" fill="#D2DEEA"/>

    <circle cx="600" cy="626" r="194" fill="url(#ring)"/>
    <circle cx="600" cy="626" r="158" fill="url(#dial)"/>

    <g stroke="#5C7CA4" stroke-width="12" stroke-linecap="round">
      <path d="M600 492V526"/>
      <path d="M600 726V760"/>
      <path d="M466 626H500"/>
      <path d="M700 626H734"/>
    </g>

    <g stroke="#36506F" stroke-width="18" stroke-linecap="round">
      <path d="M600 626V546"/>
      <path d="M600 626L676 670"/>
    </g>

    <circle cx="600" cy="626" r="20" fill="#36506F"/>
  </g>
</svg>
