<svg width="1200" height="1200" viewBox="0 0 1200 1200" fill="none" xmlns="http://www.w3.org/2000/svg" role="img" aria-labelledby="title desc">
  <title id="title">Firewall symbol</title>
  <desc id="desc">A firewall symbol with a brick wall and protective shield.</desc>
  <defs>
    <linearGradient id="panel" x1="214" y1="194" x2="987" y2="1010" gradientUnits="userSpaceOnUse">
      <stop offset="0" stop-color="#D76E52"/>
      <stop offset="1" stop-color="#973D2A"/>
    </linearGradient>
    <linearGradient id="card" x1="324" y1="322" x2="864" y2="894" gradientUnits="userSpaceOnUse">
      <stop offset="0" stop-color="#FFFDFC"/>
      <stop offset="1" stop-color="#F2E1DA"/>
    </linearGradient>
    <linearGradient id="shield" x1="470" y1="508" x2="746" y2="816" gradientUnits="userSpaceOnUse">
      <stop offset="0" stop-color="#F2B39E"/>
      <stop offset="1" stop-color="#D96F52"/>
    </linearGradient>
    <filter id="shadow" x="164" y="156" width="872" height="900" filterUnits="userSpaceOnUse" color-interpolation-filters="sRGB">
      <feFlood flood-opacity="0" result="BackgroundImageFix"/>
      <feColorMatrix in="SourceAlpha" type="matrix" values="0 0 0 0 0 0 0 0 0 0 0 0 0 0 0 0 0 0 127 0" result="hardAlpha"/>
      <feOffset dy="20"/>
      <feGaussianBlur stdDeviation="26"/>
      <feComposite in2="hardAlpha" operator="out"/>
      <feColorMatrix type="matrix" values="0 0 0 0 0.592157 0 0 0 0 0.239216 0 0 0 0 0.164706 0 0 0 0.2 0"/>
      <feBlend mode="normal" in2="BackgroundImageFix" result="effect1_dropShadow_1_1"/>
      <feBlend mode="normal" in="SourceGraphic" in2="effect1_dropShadow_1_1" result="shape"/>
    </filter>
  </defs>

  <g filter="url(#shadow)">
    <rect x="216" y="208" width="768" height="784" rx="154" fill="url(#panel)"/>
    <rect x="314" y="296" width="572" height="612" rx="72" fill="url(#card)"/>

    <rect x="314" y="296" width="572" height="136" rx="72" fill="#B14E37"/>
    <rect x="382" y="348" width="172" height="30" rx="15" fill="#FFF1EC" fill-opacity="0.96"/>
    <circle cx="794" cy="364" r="20" fill="#FFF1EC"/>
    <circle cx="730" cy="364" r="20" fill="#F0D1C6"/>

    <g fill="#C96149">
      <rect x="390" y="560" width="140" height="54" rx="18"/>
      <rect x="544" y="560" width="140" height="54" rx="18"/>
      <rect x="698" y="560" width="112" height="54" rx="18"/>

      <rect x="466" y="624" width="140" height="54" rx="18"/>
      <rect x="620" y="624" width="140" height="54" rx="18"/>

      <rect x="390" y="688" width="140" height="54" rx="18"/>
      <rect x="544" y="688" width="140" height="54" rx="18"/>
      <rect x="698" y="688" width="112" height="54" rx="18"/>
    </g>

    <path d="M600 470L736 520V636C736 732 676 804 600 834C524 804 464 732 464 636V520L600 470Z" fill="url(#shield)"/>
    <path d="M600 540V752" stroke="#8E3625" stroke-width="18" stroke-linecap="round"/>
    <path d="M520 646L600 726L680 646" stroke="#8E3625" stroke-width="18" stroke-linecap="round" stroke-linejoin="round"/>
  </g>
</svg>
