<svg width="1200" height="1200" viewBox="0 0 1200 1200" fill="none" xmlns="http://www.w3.org/2000/svg" role="img" aria-labelledby="title desc">
  <title id="title">Server symbol</title>
  <desc id="desc">A computer server symbol with stacked rack units.</desc>
  <defs>
    <linearGradient id="panel" x1="214" y1="194" x2="987" y2="1010" gradientUnits="userSpaceOnUse">
      <stop offset="0" stop-color="#5D7FA9"/>
      <stop offset="1" stop-color="#334962"/>
    </linearGradient>
    <linearGradient id="rack" x1="364" y1="350" x2="836" y2="854" gradientUnits="userSpaceOnUse">
      <stop offset="0" stop-color="#F9FBFD"/>
      <stop offset="1" stop-color="#DCE3EA"/>
    </linearGradient>
    <linearGradient id="unit" x1="404" y1="468" x2="796" y2="794" gradientUnits="userSpaceOnUse">
      <stop offset="0" stop-color="#C1CDD9"/>
      <stop offset="1" stop-color="#8798AB"/>
    </linearGradient>
    <filter id="shadow" x="164" y="156" width="872" height="900" filterUnits="userSpaceOnUse" color-interpolation-filters="sRGB">
      <feFlood flood-opacity="0" result="BackgroundImageFix"/>
      <feColorMatrix in="SourceAlpha" type="matrix" values="0 0 0 0 0 0 0 0 0 0 0 0 0 0 0 0 0 0 127 0" result="hardAlpha"/>
      <feOffset dy="20"/>
      <feGaussianBlur stdDeviation="26"/>
      <feComposite in2="hardAlpha" operator="out"/>
      <feColorMatrix type="matrix" values="0 0 0 0 0.2 0 0 0 0 0.286275 0 0 0 0 0.384314 0 0 0 0.2 0"/>
      <feBlend mode="normal" in2="BackgroundImageFix" result="effect1_dropShadow_1_1"/>
      <feBlend mode="normal" in="SourceGraphic" in2="effect1_dropShadow_1_1" result="shape"/>
    </filter>
  </defs>

  <g filter="url(#shadow)">
    <rect x="216" y="208" width="768" height="784" rx="154" fill="url(#panel)"/>
    <rect x="314" y="296" width="572" height="612" rx="72" fill="#E8EEF4"/>

    <rect x="314" y="296" width="572" height="136" rx="72" fill="#415A79"/>
    <rect x="382" y="348" width="174" height="30" rx="15" fill="#F1F5F9" fill-opacity="0.96"/>
    <circle cx="794" cy="364" r="20" fill="#F1F5F9"/>
    <circle cx="730" cy="364" r="20" fill="#D2DAE3"/>

    <rect x="378" y="470" width="444" height="330" rx="36" fill="url(#rack)"/>

    <g fill="url(#unit)">
      <rect x="410" y="502" width="380" height="72" rx="24"/>
      <rect x="410" y="598" width="380" height="72" rx="24"/>
      <rect x="410" y="694" width="380" height="72" rx="24"/>
    </g>

    <g fill="#425A78">
      <rect x="452" y="528" width="138" height="20" rx="10"/>
      <rect x="452" y="624" width="156" height="20" rx="10"/>
      <rect x="452" y="720" width="124" height="20" rx="10"/>
    </g>

    <g fill="#EEF3F7">
      <circle cx="728" cy="538" r="10"/>
      <circle cx="756" cy="538" r="10"/>
      <circle cx="728" cy="634" r="10"/>
      <circle cx="756" cy="634" r="10"/>
      <circle cx="728" cy="730" r="10"/>
      <circle cx="756" cy="730" r="10"/>
    </g>
  </g>
</svg>
